<?xml version="1.0" encoding="utf-8"?>
<!-- Generator: Adobe Illustrator 19.0.0, SVG Export Plug-In . SVG Version: 6.00 Build 0)  -->
<svg version="1.1" id="Warstwa_1" xmlns="http://www.w3.org/2000/svg" xmlns:xlink="http://www.w3.org/1999/xlink" x="0px" y="0px"
	 viewBox="444 -55.1 1129.9 159" style="enable-background:new 444 -55.1 1129.9 159;" xml:space="preserve">
<style type="text/css">
	.st0{fill:#FDFDFC;}
	.st1{fill:#59595A;}
	.st2{fill:#ECB405;}
	.st3{fill:#99A232;}
	.st4{fill:#FBFBFB;}
	.st5{fill:#F4F4F4;}
	.st6{fill:#F8F8F8;}
	.st7{fill:none;}
	.st8{fill:#98A035;}
	.st9{fill:#EBB401;}
</style>
<g>
	<path class="st0" d="M656.1-35.2c-5.1,0.6-7.5,1-8.2,1.1c-4.7,0.7-8.6,1.4-11.4,1.9c0.8,0.1,2,0.1,3.5,0.1c1.9-0.1,2.4-0.2,5-0.4
		c2.1-0.2,2.3-0.1,4.5-0.2c1.9-0.1,3.3-0.3,4.3-0.4c3.7-0.3,7.5-0.6,11.5-0.8c3.6-0.2,7.1-0.2,10.5-0.2c1.5-0.1,4-0.3,7-0.4
		c10.7-0.6,25.1-1.4,42.1-0.8c5.9,0.2,10.1,0.5,14.9,0.8c19.4,1.3,38.7,3.2,57.9,6.5c16.7,2.8,33.3,6.2,49.6,11
		c16.9,4.9,33.4,11.1,48.8,19.8c11.2,6.4,21.9,13.5,28.8,24.9c4.7,7.8,6,16.1,2.7,25c-3.3,8.7-9.7,14.7-16.8,20.3
		c-5.5,4.4-11.6,7.6-18.3,11.7c7.3,0.9,13.7-0.7,19.9-1.6c15.4-2.1,30.7-4.7,45.8-8.5c16.3-4.2,32.1-9.2,46.5-18.1
		c5.9-3.7,11.3-8.1,15.3-13.9c7.4-10.8,5.7-23.8-4.1-34.4c-9-9.7-20.3-15.6-32.1-20.7c-23.8-10.4-48.9-16.2-74.3-20.7
		c-14.7-2.6-29.6-4.5-44.5-5.9c-15.8-1.5-31.6-2.7-47.4-3.1c-65.7-1.7-115,2.2-133.9,4.3c-1.7,0.2-3.2,0.4-4.1,0.5
		c-2.3,0.4-4.8,0.8-7.5,0.9c-0.6,0-1.3,0-1.9,0C664.4-36.1,659.6-35.6,656.1-35.2z M460.1,9.8c-3.1,0.7-6.2,1.5-9.3,2.2
		c4.5,0.7,8.8,0.2,13.1-0.8c14.5-1.1,29.1-2.4,43.7-2.4c20.9,0,41.6,0.9,61.8,7c7.5,2.3,14.9,5.1,20.5,11c5.2,5.3,5.8,11.1,1.8,17.4
		c-2.4,3.7-5.6,6.7-9.2,9.2c-2.8,1.9-5.7,3.7-8.8,5.7c0.6,0.2,0.8,0.3,1,0.3c21.8-0.4,43.1-3.8,63.2-12.4c7.9-3.4,15.1-8.1,20-15.6
		c3.8-5.8,3.2-12.1-2.2-16.6c-7.8-6.5-17.5-8.8-27.1-10.9c-13.4-2.9-27.1-4.1-40.8-4.8c-24.5-1.3-48.9-0.3-73.3,2
		C496.3,2.8,478,5.5,460.1,9.8z M801.1,98.2c4.5,0,8.4-0.3,12.2-0.6c17-1.5,33.9-4.1,50.4-8.4c12.7-3.3,25.1-7.4,35.6-15.7
		c11.5-9.1,13-19.9,4.3-31.7c-7.6-10.3-17.7-17.9-28-25.2C850.5-1,822.5-11.6,792.9-18.9c-23.5-5.8-47.5-8.5-71.5-10.4
		c-9.7-0.8-19.5-0.7-29.2-0.8c-14.5-0.1-29,0.6-43.4,1.4c-13.2,0.7-26.4,2-39.5,3.3c-20.2,2.1-40.2,5.3-60.1,9
		c-28.4,5.2-56.5,11.7-84.3,19.5c-5,1.4-9.9,2.9-14.9,4.4c1,0.5,1.9,0.7,2.7,0.5c18.4-4.2,37-7.8,55.7-10.7
		c16.9-2.6,33.9-4.5,50.9-5.6c14.7-0.9,29.4-1.2,44.2-0.1c13.7,1,27.3,2.5,40.5,6.1c11,3,21.6,7,30.3,14.7
		c10.2,8.9,11.1,20.8,2.2,31c-3.1,3.6-6.7,6.7-10.7,9.3c-17.7,11.3-37.6,16.2-57.9,19.7c-9.7,1.7-19.6,2.6-30.3,3.4
		c1.4,0.6,1.9,0.9,2.5,1.1c25.5,6.4,51.2,11.7,77.2,15.3c17.3,2.4,34.6,4.4,52,5.7c18.7,1.4,37.4,2,56.2,1.7c2.2,0,3.6-0.7,4.9-2.5
		c7.2-10.3,14-20.9,18.2-32.9c0.7-1.9,1.8-2.3,3.6-2.3c4.6,0.1,9.2,0,13.9,0c8.1,0,8,0,6,7.8C809.5,79.6,805.7,88.7,801.1,98.2z"/>
	<path class="st1" d="M806.3,98c-2.4,0.1-4-2.4-3-4.5c3.6-7.8,6.6-15.5,8.7-23.5c2-7.9,2.2-7.8-6-7.8c-4.6,0-9.3,0.1-13.9,0
		c-1.8,0-3,0.4-3.6,2.3c-4.2,12-11,22.6-18.2,32.9c-1.3,1.8-2.7,2.5-4.9,2.5c-18.8,0.3-37.5-0.3-56.2-1.7c-17.4-1.3-34.7-3.3-52-5.7
		c-26-3.7-51.7-8.9-77.2-15.3c-0.6-0.1-1.1-0.5-2.5-1.1c10.8-0.8,20.6-1.8,30.3-3.4c20.3-3.5,40.2-8.4,57.9-19.7
		c4-2.6,7.6-5.7,10.7-9.3c8.8-10.2,8-22.1-2.2-31C665.4,5,654.8,1,643.9-2c-13.2-3.6-26.8-5.2-40.5-6.1c-14.7-1-29.5-0.8-44.2,0.1
		c-17,1.1-34,3-50.9,5.6c-18.6,2.7-37.2,6.3-55.6,10.5c-0.8,0.2-1.7,0-2.7-0.5c5-1.5,9.9-3,14.9-4.4c27.7-7.8,55.8-14.3,84.2-19.5
		c19.9-3.6,40-6.9,60.1-9c13.1-1.4,26.3-2.6,39.5-3.3c14.5-0.8,28.9-1.5,43.4-1.4c9.7,0.1,19.5,0,29.2,0.8
		c24.1,1.9,48,4.6,71.5,10.4c29.5,7.3,57.6,17.9,82.7,35.5c10.3,7.3,20.4,14.9,28,25.2c8.7,11.8,7.2,22.6-4.3,31.7
		c-10.5,8.3-22.9,12.3-35.6,15.7c-16.5,4.3-33.4,6.9-50.4,8.4C811,97.8,808.7,97.9,806.3,98z M619.8-23.2
		c-3.8,0.3-14.7,1.2-18.5,1.5c0,0,0,0.1,0,0.2c0.1,0.5,1.8,0.6,5.9,0.4c2.1-0.1,1.7-0.1,3.9-0.2c3.4-0.2,5.2-0.2,8.6-0.5
		c0.2,0,0.4,0,0.4,0c20.1-0.6,40.4-0.9,60.5,0.3c13.9,0.9,27.9,2,41.5,5.1c9.2,2.1,18.5,2.6,28.8,2c-2.1-0.6-3.3-0.9-4.4-1.2
		c-20.8-5.2-42-7.2-63.3-8.1C662-24.9,640.9-24.3,619.8-23.2z M803.4,51.8c3,0,6-0.1,9,0c1.8,0.1,2.3-0.6,2.4-2.4
		c0.1-7.5-1.4-14.6-4-21.5c-0.5-1.4-1.2-1.9-2.7-1.9c-4.7,0.1-9.5,0.2-14.2,0c-2.5-0.1-2.6,0.9-2.1,2.9c1.9,6.7,2.1,13.5,0.8,20.4
		c-0.4,2.1,0.4,2.6,2.3,2.6C797.7,51.8,800.6,51.9,803.4,51.8z M799.4,18.8c2.7,0,4.2-3.2,2.4-5.3c-3.3-3.9-6.9-7.1-10.8-9.9
		c-0.5-0.3-1.1-0.5-1.7-0.5h-7.5c-2.9,0-4.3,3.5-2.2,5.5c2.9,2.8,5.4,5.8,7.4,9.2c0.5,0.9,1.3,1.1,2.2,1.1
		C792.5,18.8,795.8,18.8,799.4,18.8z M771.8-7.8c-2.9-1.2-6-2.2-9.1-2.9c-3.7-0.8-5.5,4.3-2.1,6c1.9,0.9,3.7,1.8,5.5,2.8
		c0.6,0.3,1.5,0.2,2.2,0.2h2.3C774.1-1.6,775-6.4,771.8-7.8z"/>
	<path class="st2" d="M666.1-36.2c76.6-8.6,136.6-6.8,151.4-6.3c22.8,0.8,38.6,2.3,47.4,3.1c14.9,1.4,29.8,3.3,44.5,5.9
		c25.4,4.5,50.5,10.4,74.3,20.7c11.8,5.1,23.2,11,32.1,20.7c9.8,10.6,11.5,23.6,4.1,34.4c-4,5.8-9.3,10.2-15.3,13.9
		c-14.4,8.9-30.2,13.9-46.5,18.1c-15.1,3.9-30.4,6.4-45.8,8.5c-6.3,0.9-12.6,2.5-19.9,1.6c6.6-4,12.8-7.3,18.3-11.7
		c7-5.6,13.5-11.6,16.8-20.3c3.3-8.8,2.1-17.1-2.7-25C917.9,16,907.2,8.8,896,2.5c-15.4-8.7-31.8-14.9-48.8-19.8
		c-16.3-4.8-32.9-8.1-49.6-11c0,0-32.2-5.5-57.9-6.5c-0.4,0-5.1-0.2-11.4-0.4c0,0-5.5-0.2-10.1-0.3c-14.3-0.4-37.5,1-37.5,1
		c-27.2,1-44.1,2.9-44.1,2.4C636.5-32.6,651.1-34.5,666.1-36.2z"/>
	<path class="st3" d="M451.6,11.9c24.5-5.9,46-9.1,63.2-10.9c25.7-2.7,42.9-3.6,73.3-2c13.7,0.7,27.4,1.9,40.8,4.8
		c9.6,2.1,19.3,4.4,27.1,10.9c5.4,4.5,6,10.8,2.2,16.6c-4.9,7.5-12.1,12.2-20,15.6C618.1,55.5,596.8,59,575,59.3
		c-0.2,0-0.4-0.1-1-0.3c3.1-2,6-3.8,8.8-5.7c3.6-2.5,6.9-5.4,9.2-9.2c3.9-6.2,3.4-12-1.8-17.4c-5.7-5.8-13-8.7-20.5-11
		c-20.2-6.1-40.9-7-61.8-7c-17,0-39.8,2-42.9,2.3c-0.4,0-1.8,0.2-3.8,0.3c-1.9,0.1-2.8,0.1-4.5,0.1
		C455.5,11.5,453.7,11.6,451.6,11.9z"/>
	<path class="st4" d="M803.4,51.8c-2.9,0-5.8-0.1-8.6,0c-1.9,0.1-2.7-0.4-2.3-2.6c1.3-6.8,1.1-13.6-0.8-20.4c-0.6-2-0.4-3,2.1-2.9
		c4.7,0.2,9.5,0.1,14.2,0c1.5,0,2.2,0.5,2.7,1.9c2.7,6.9,4.1,14.1,4,21.5c0,1.8-0.6,2.4-2.4,2.4C809.4,51.8,806.4,51.8,803.4,51.8z"
		/>
	<path class="st5" d="M619.8-23.2c21.1-1.1,42.2-1.7,63.3-0.8c21.3,0.9,42.5,2.9,63.3,8.1c1.2,0.3,2.3,0.7,4.4,1.2
		c-10.3,0.6-19.6,0.1-28.8-2c-13.6-3.1-27.6-4.3-41.5-5.1c-20.2-1.3-42.9-0.6-63.2,0.1C617.4-22.1,619.8-22.8,619.8-23.2z"/>
	<path class="st4" d="M805.8,18.8c-6.2,0-11.4,0-16.6,0c-0.9,0-1.7-0.2-2.2-1.1c-3.4-5.6-7.9-10.1-13.6-14.7c5.8,0,10.9,0,15.9,0
		c0.6,0,1.2,0.2,1.7,0.5C796.6,7.6,801.4,12.3,805.8,18.8z"/>
	<path class="st6" d="M782.8-1.6c-5.3,0-9.9,0-14.5,0c-0.7,0-1.6,0.1-2.2-0.2c-6.9-3.7-14-6.8-22.1-9.5
		C757.9-13.2,771.3-9.8,782.8-1.6z"/>
	<path class="st7" d="M686.1-38.6c-10.7-0.9-21.4,2.4-32.1,2.7"/>
	<path class="st3" d="M458.9,11.9"/>
</g>
<path class="st1" d="M2795.8,151.3"/>
<path class="st4" d="M804.2,97.2c1.1,1,3.5,0.6,3.5,0.7s-6.7,0.4-6.8,0.4c-4.3,0.2-3.1,0.2-10.6,0.6c-4.2,0.2-3.9,0.2-9.3,0.4
	c-5.5,0.3-8.3,0.4-8.4,0.4c-1.1,0.1-6.7,0.5-6.8,0.3c0-0.1,1.8-0.2,3.5-1.6c0.4-0.4,0.7-0.7,2.3-3.1c1.5-2.2,1.2-1.8,1.7-2.4
	c3.4-5.2,5.7-9.2,5.7-9.2c0.7-1.2,8-14.3,9.2-18.7c0.1-0.3,0.4-1.4,1.3-2.2c0.9-0.7,1.9-0.7,2.3-0.8c4.5-0.2,6.7-0.3,11-0.1
	c5.5,0.3,9.4-0.2,9.9,1.3c0.1,0.3,0.1,0.9,0.2,1.3c0.1,1.3-0.2,2.3-0.3,2.8c-2.5,8.7-3,9.9-3,9.9c-2,4.9-3.1,10.1-5.8,14.6
	c-0.3,0.5-1.2,1.9-0.8,3.5c0,0,0,0.1,0,0.2C803.1,95.5,803.4,96.5,804.2,97.2z"/>
<path class="st4" d="M799.7,72.4"/>
<path class="st4" d="M806.9,64.7"/>
<g>
	<path class="st8" d="M1102.9,50c1.9,0,3.4,0.7,4.7,2c1.3,1.3,2,2.9,2,4.7c-0.3,5.2-2.5,9.7-6.3,13.3c-3.8,3.6-8.3,5.4-13.6,5.4
		h-23.2c-5.5,0-10.3-2-14.1-5.9c-3.9-3.9-5.9-8.7-5.9-14.2v-4.2c0-4.8,1.5-9,4.4-12.7c-3-3.7-4.4-7.9-4.4-12.7v-4.2
		c0-5.5,2-10.3,5.9-14.2c3.9-3.9,8.6-5.9,14.1-5.9h23.2c5.3,0,9.8,1.8,13.6,5.4c3.9,3.6,6,8,6.3,13.2c0,1.9-0.7,3.5-2,4.8
		c-1.3,1.3-2.8,1.9-4.7,1.9l-7.9-0.1c-1.6,0-3-0.5-4.3-1.4c-1.2-1-2-2.2-2.3-3.7h-0.1c-0.3-1.6-1.1-2.8-2.3-3.8
		c-1.2-1-2.6-1.5-4.3-1.5h-7.7c-1.9,0-3.5,0.7-4.8,2c-1.3,1.3-1.9,2.8-1.9,4.7v1.4c0,1.8,0.6,3.4,1.9,4.7c1.3,1.3,2.9,2,4.8,2h7.7
		c1.9,0,3.5,0.7,4.8,2c1.3,1.3,2,2.8,2,4.7v1.4c0,1.8-0.7,3.4-2,4.7s-2.9,2-4.8,2h-7.7c-1.9,0-3.5,0.7-4.8,2
		c-1.3,1.3-1.9,2.9-1.9,4.7V54c0,1.8,0.6,3.4,1.9,4.7c1.3,1.3,2.9,2,4.8,2h7.7c1.7,0,3.1-0.5,4.3-1.5c1.2-1,2-2.3,2.3-3.8h0.1
		c0.3-1.5,1.1-2.7,2.3-3.7c1.2-1,2.6-1.6,4.3-1.6L1102.9,50z"/>
	<path class="st8" d="M1174,22.1c-2.7,3.8-6.5,7.6-11.5,11.3c-0.9,0.7-2.1,1.5-3.6,2.6c12.6,17.6,19,26.5,19.2,26.8
		c1.3,1.3,2,2.9,2,4.8v1.4c0,1.9-0.7,3.5-2,4.8c-1.4,1.3-2.9,2-4.8,2h-7.8c-1.2,0-2.8-0.7-4.7-2l-16.6-23.2v-0.1
		c-0.9-1.2-1.3-1.7-1.1-1.5c-0.5-0.6-1-1.1-1.6-1.5c-1.2-1-2.5-1.4-3.7-1.4h-0.1v23c0,1.9-0.7,3.5-2,4.8s-2.9,2-4.8,2h-7.7
		c-1.9,0-3.5-0.7-4.8-2s-2-2.9-2-4.8v-90.4c0-1.9,0.7-3.5,2-4.8s2.9-2,4.8-2h7.7c1.9,0,3.5,0.7,4.8,2s2,2.9,2,4.8v48.9v-0.1
		c6.1-4.1,10-6.8,11.7-8.1c2.9-2.1,5.3-4.6,7.2-7.5l2.5-5.1c0,0,0.1-0.2,0.2-0.3c0.3-1.2,1-2.2,1.8-3.1c-0.1,0.2-0.1,0.1,0.2-0.1
		c0,0,0.1,0,0.1-0.1c0,0,0-0.1,0.1-0.1c0,0,0,0,0.1-0.1c1.2-1,2.6-1.4,4.2-1.4h7.7c1.9,0,3.5,0.7,4.8,2c1.3,1.4,2,2.9,2,4.8v1.4
		c0,1.2-0.3,2.4-1,3.4c-0.1,0.3-0.2,0.5-0.3,0.7c-1.9,3.7-2.9,5.5-2.9,5.5S1175.4,20.2,1174,22.1z"/>
	<path class="st8" d="M1225.6,1.5c5.6,0,10.3,2,14.3,5.9s5.9,8.7,5.9,14.2v33.8c0,5.5-2,10.3-5.9,14.2s-8.7,5.9-14.3,5.9h-23.2
		c-5.5,0-10.3-2-14.2-5.9s-5.9-8.7-5.9-14.2V21.6c0-5.5,2-10.3,5.9-14.2s8.7-5.9,14.2-5.9H1225.6z M1224.6,23c0-1.9-0.7-3.5-2-4.8
		s-2.9-2-4.7-2h-7.7c-1.9,0-3.5,0.7-4.8,2s-2,2.9-2,4.8v31.3c0,1.9,0.7,3.5,2,4.8s2.9,2,4.8,2h7.7c1.8,0,3.4-0.7,4.7-2s2-2.9,2-4.8
		V23z"/>
	<path class="st9" d="M1284.6,16.3v38.1c0.1,1.8,0.8,3.3,2.1,4.5c1.3,1.2,2.8,1.8,4.6,1.8h7.8c1.9,0,3.5,0.7,4.8,2s2,2.9,2,4.8v1.4
		c0,1.9-0.7,3.5-2,4.8s-2.9,2-4.8,2h-15.5c-5.3,0-9.9-1.8-13.7-5.4c-3.8-3.6-6-8-6.3-13.3l-0.1-0.7V16.3h-3.9c-1.9,0-3.5-0.7-4.8-2
		s-2-2.9-2-4.7V8.2c0-1.8,0.7-3.4,2-4.8c1.3-1.3,2.9-2,4.8-2h3.9v-8.1c0-1.8,0.7-3.4,2-4.7s2.9-2,4.8-2h7.7c1.9,0,3.5,0.7,4.8,2
		s2,2.9,2,4.7v8.1h14.5c1.9,0,3.5,0.7,4.8,2c1.3,1.4,2,2.9,2,4.8v1.4c0,1.8-0.7,3.4-2,4.7s-2.9,2-4.8,2H1284.6z"/>
	<path class="st9" d="M1344.1,2.5c1.8,0,3.3,0.7,4.6,2c1.3,1.3,2,2.8,2,4.6v1.4c0,1.8-0.7,3.4-2,4.7c-1.3,1.3-2.9,1.9-4.6,1.9h-7.7
		c-1.8,0-3.3,0.6-4.6,1.8c-1.3,1.2-1.9,2.7-2,4.4v45.5c0,1.8-0.7,3.4-2,4.7c-1.3,1.3-2.8,1.9-4.6,1.9h-7.7c-1.8,0-3.4-0.6-4.6-1.9
		c-1.3-1.3-2-2.9-2-4.7V11.2c0,0,0-0.2,0-0.3c0-0.2,0-0.3,0-0.4V9.1c0-1.8,0.7-3.4,2-4.6c1.3-1.3,2.8-2,4.6-2H1344.1z"/>
	<path class="st9" d="M1417.6,19.9c0.1,0.3,0.1,0.7,0.1,0.9v48c0,1.9-0.7,3.5-2,4.8c-1.4,1.3-2.9,2-4.8,2h-36.7
		c-5.6,0-10.3-2-14.3-5.9s-5.9-8.7-5.9-14.3v-4.2c0-5.6,2-10.3,5.9-14.3s8.7-5.9,14.3-5.9h15.6c1.8,0,3.4-0.7,4.7-2s2-2.9,2-4.8V23
		c0-1.9-0.7-3.5-2-4.8s-2.9-2-4.8-2h-7.8c-1.6,0-3,0.5-4.2,1.5c-1.2,1-2,2.3-2.4,3.8c-0.3,1.5-1.1,2.8-2.4,3.7
		c-1.2,1-2.6,1.5-4.2,1.5l-8,0.1c-1.8,0-3.4-0.7-4.7-2s-2-2.9-2-4.7c0.3-5.3,2.4-9.7,6.3-13.3c3.9-3.7,8.5-5.5,13.8-5.5h23.3
		c5.2,0,9.8,1.8,13.7,5.4c3.8,3.6,5.8,5.4,5.8,5.4S1417.2,14.7,1417.6,19.9z M1391.1,60.8c1.9,0,3.5-0.7,4.8-2s2-2.9,2-4.7V46h-14.5
		c-1.8,0-3.4,0.7-4.7,2s-2,2.9-2,4.7v1.4c0,1.8,0.7,3.4,2,4.7s2.9,2,4.7,2H1391.1z"/>
	<path class="st9" d="M1486.9,23.4v0.3v45.5c0,1.8-0.6,3.4-1.9,4.7c-1.3,1.3-2.9,2-4.7,2h-7.6c-1.8,0-3.4-0.7-4.7-2
		c-1.3-1.3-1.9-2.9-1.9-4.7V23.7v-0.3h-0.1c-0.1-1.7-0.8-3.2-2-4.4c-1.3-1.2-2.8-1.8-4.5-1.8h-14.3v51.8c0,1.8-0.7,3.4-2,4.7
		c-1.3,1.3-2.8,1.9-4.6,1.9h-7.7c-1.8,0-3.4-0.6-4.6-1.9c-1.3-1.3-2-2.9-2-4.7V11.2v-0.3v-0.4V9.1c0-1.8,0.7-3.4,2-4.6
		c1.3-1.3,2.8-2,4.6-2h36.1c5.5,0,10.2,1.9,14.1,5.8c3.8,3.9,5.8,8.5,5.8,14V23.4z"/>
	<path class="st9" d="M1519.8,16.3c-1.9,0-3.5,0.7-4.8,2s-2,2.9-2,4.8v0.1c0,1.8,0.7,3.4,2,4.7s2.9,2,4.7,2h5.8h8.8
		c5.4,0,9.6,2,12.6,6c2.9,3.7,4.3,8.4,4.3,14.2v5.6c0,5.6-2,10.3-5.9,14.3s-8.7,5.9-14.3,5.9h-28.6c-1.8,0-3.4-0.7-4.8-2
		c-1.3-1.3-2-2.9-2-4.8v-1.4c0-1.9,0.7-3.5,2-4.8c1.4-1.3,2.9-2,4.8-2h25.1c1.9,0,3.5-0.7,4.8-2s2-2.9,2-4.7V54c0-1.9-0.7-3.5-2-4.8
		s-2.9-2-4.8-2h-16.6c-5.4,0-9.7-2-12.8-5.9c-3-3.7-4.5-8.5-4.5-14.3v-5.6c0-5.5,2-10.3,5.9-14.2c3.9-4,8.7-6,14.3-6h28.6
		c1.8,0,3.4,0.7,4.7,2c1.4,1.3,2,2.9,2,4.7v1.4c0,1.8-0.7,3.4-2,4.7c-1.3,1.3-2.9,2-4.7,2H1519.8z"/>
</g>
</svg>
