<?xml version="1.0" encoding="iso-8859-1"?>
<!-- Generator: Adobe Illustrator 18.0.0, SVG Export Plug-In . SVG Version: 6.00 Build 0)  -->
<!DOCTYPE svg PUBLIC "-//W3C//DTD SVG 1.1//EN" "http://www.w3.org/Graphics/SVG/1.1/DTD/svg11.dtd">
<svg version="1.1" id="Capa_1" xmlns="http://www.w3.org/2000/svg" xmlns:xlink="http://www.w3.org/1999/xlink" x="0px" y="0px"
	 viewBox="0 0 135.001 135.001" style="enable-background:new 0 0 135.001 135.001;" xml:space="preserve" width="100" height="100">
<g>
	<circle style="fill:#DAD5B1;" cx="67.501" cy="67.501" r="67.5"/>
	<g>
		<path style="fill:#FEC820;" d="M26.48,87.142h41.289c1.109,0,2.006-1.206,2.006-2.699V43.834c0-1.489-0.896-2.699-2.006-2.699
			H26.48c-1.109,0-2.006,1.21-2.006,2.699v40.608C24.474,85.936,25.371,87.142,26.48,87.142z"/>
		<path style="fill:#FEB60E;" d="M67.769,41.135h-2.346C54.928,52.671,44.245,64.036,33.953,75.756
			c-3.029,3.45-6.03,6.926-8.989,10.437c0.368,0.577,0.906,0.949,1.517,0.949h41.289c1.109,0,2.006-1.206,2.006-2.699V43.834
			C69.775,42.345,68.878,41.135,67.769,41.135z"/>
		<path style="fill:#FEC820;" d="M71.878,48.889v38.253h16.775h19.064h5.336v-5.973V70.875c0,0-4.064-3.431-10.039-4.829
			c0,0-6.703-13.389-9.115-15.424C93.9,50.622,90.435,49.524,71.878,48.889z"/>
		<path style="fill:#FF6F00;" d="M109.281,87.142c0.057-0.438,0.09-0.883,0.09-1.334c0-5.721-4.639-10.358-10.359-10.358
			c-5.721,0-10.357,4.638-10.357,10.358c0,0.451,0.033,0.896,0.09,1.334H109.281z"/>
		<path style="fill:#FF6F00;" d="M52.218,87.142c0.057-0.438,0.09-0.883,0.09-1.334c0-5.721-4.641-10.358-10.361-10.358
			c-5.719,0-10.356,4.638-10.356,10.358c0,0.451,0.031,0.896,0.09,1.334H52.218z"/>
		<circle style="fill:#35393F;" cx="99.011" cy="86.125" r="7.816"/>
		<circle style="fill:#35393F;" cx="41.949" cy="85.808" r="7.625"/>
		<path style="fill:#FEFEFE;" d="M92.617,53.977H80.177c-0.588,0-1.533,0.565-1.533,1.153v9.851c0,0.586,0.945,1.516,1.533,1.516
			h17.744C97.718,66.103,94.144,57.775,92.617,53.977z"/>
		<path style="fill:#FF6F00;" d="M113.054,73.801c-0.957,0.098-1.713,0.904-1.713,1.887v2.049c0,0.985,0.756,1.79,1.713,1.887
			V73.801z"/>
		<rect x="24.474" y="54.065" style="fill:#FF6F00;" width="45.301" height="3.489"/>
		<rect x="24.474" y="62.921" style="fill:#FF6F00;" width="45.301" height="3.887"/>
	</g>
</g>
<g>
</g>
<g>
</g>
<g>
</g>
<g>
</g>
<g>
</g>
<g>
</g>
<g>
</g>
<g>
</g>
<g>
</g>
<g>
</g>
<g>
</g>
<g>
</g>
<g>
</g>
<g>
</g>
<g>
</g>
</svg>
